{"title":"Taylor Swift- Love Story HD 720p ~Abhinav4u~","uid":7125513,"size":73622879,"categoryP":"video","categoryS":"music_videos","magnet":"?xt=urn:btih:29afc461afb78eef1814b87f95f5368596606fc6&amp;dn=Taylor+Swift-+Love+Story+HD+720p+%7EAbhinav4u%7E&amp;tr=udp%3A%2F%2Ftracker.openbittorrent.com%3A80&amp;tr=udp%3A%2F%2Fopen.demonii.com%3A1337&amp;tr=udp%3A%2F%2Ftracker.coppersurfer.tk%3A6969&amp;tr=udp%3A%2F%2Fexodus.desync.com%3A6969","seeders":1,"leechers":0,"uploader":"Abhinav4u","files":3,"time":1332522127,"description":"INFO:-\n\nFormat                           : Matroska\nFile size                        : 70.2 MiB\nDuration                         : 3mn 54s\nOverall bit rate                 : 2 511 Kbps\nMovie name                       : Taylor Swift- Love Story 720p ~Abhinav4u~\n\nID                               : 1\nFormat                           : AVC\nFormat/Info                      : Advanced Video Codec\nFormat profile                   : &lt;a class=&quot;__cf_email__&quot; href=&quot;/cdn-cgi/l/email-protection&quot; data-cfemail=&quot;eea38f8780aea2dbc0df&quot;&gt;[email&amp;#160;protected]&lt;/a&gt;&lt;script cf-hash='f9e31' type=&quot;text/javascript&quot;&gt;\n/* &lt;![CDATA[ */!function(){try{var t=&quot;currentScript&quot;in document?document.currentScript:function(){for(var t=document.getElementsByTagName(&quot;script&quot;),e=t.length;e--;)if(t[e].getAttribute(&quot;cf-hash&quot;))return t[e]}();if(t&amp;&amp;t.previousSibling){var e,r,n,i,c=t.previousSibling,a=c.getAttribute(&quot;data-cfemail&quot;);if(a){for(e=&quot;&quot;,r=parseInt(a.substr(0,2),16),n=2;a.length-n;n+=2)i=parseInt(a.substr(n,2),16)^r,e+=String.fromCharCode(i);e=document.createTextNode(e),c.parentNode.replaceChild(e,c)}}}catch(u){}}();/* ]]&gt; */&lt;/script&gt;\nFormat settings, CABAC           : Yes\nFormat settings, ReFrames        : 5 frames\nMuxing mode                      : Header stripping\nCodec ID                         : V_MPEG4/ISO/AVC\nDuration                         : 3mn 54s\nBit rate                         : 2 386 Kbps\nWidth                            : 1 280 pixels\nHeight                           : 720 pixels\nDisplay aspect ratio             : 16:9\nFrame rate                       : 25.000 fps\nColor space                      : YUV\nChroma subsampling               : 4:2:0\nBit depth                        : 8 bits\nScan type                        : Progressive\nBits/(Pixel*Frame)               : 0.104\nStream size                      : 64.3 MiB (92%)\nTitle                            : Ripper::~Abhinav4u~\n\n\n[img]http://i.minus.com/imYQiRBATqZkc.png[/img]\n[color=green][size=5]ID                               : 2\nFormat                           : Vorbis\nFormat settings, Floor           : 1\nCodec ID                         : A_VORBIS\nDuration                         : 3mn 54s\nBit rate mode                    : Constant\nBit rate                         : 160 Kbps\nChannel(s)                       : 2 channels\nSampling rate                    : 48.0 KHz\nCompression mode                 : Lossy\nStream size                      : 4.47 MiB (6%)\nTitle                            : Eng ~Abhinav4u~\nWriting library                  : libVorbis 1.2 (UTC 2007-06-22)\nLanguage                         : English\n\nSCREENS:-\n &lt;a href=&quot;\nhttp://i.minus.com/i6ChuVJ7BNUnt.png&quot; rel=&quot;nofollow&quot; target=&quot;_NEW&quot;&gt;\nhttp://i.minus.com/i6ChuVJ7BNUnt.png&lt;/a&gt; &lt;a href=&quot;\nhttp://i.minus.com/iZCb7fkkssdCn.png&quot; rel=&quot;nofollow&quot; target=&quot;_NEW&quot;&gt;\nhttp://i.minus.com/iZCb7fkkssdCn.png&lt;/a&gt; &lt;a href=&quot;\nhttp://i.minus.com/ij6qzbiIVBoFM.png&quot; rel=&quot;nofollow&quot; target=&quot;_NEW&quot;&gt;\nhttp://i.minus.com/ij6qzbiIVBoFM.png&lt;/a&gt; &lt;a href=&quot;\nhttp://i.minus.com/ivRd2iMIaSUMZ.png&quot; rel=&quot;nofollow&quot; target=&quot;_NEW&quot;&gt;\nhttp://i.minus.com/ivRd2iMIaSUMZ.png&lt;/a&gt; &lt;a href=&quot;\nhttp://i.minus.com/i83Vx1v1JJUqs.png&quot; rel=&quot;nofollow&quot; target=&quot;_NEW&quot;&gt;\nhttp://i.minus.com/i83Vx1v1JJUqs.png&lt;/a&gt; &lt;a href=&quot;\nhttp://i.minus.com/iKeZzWCjT7b6g.png&quot; rel=&quot;nofollow&quot; target=&quot;_NEW&quot;&gt;\nhttp://i.minus.com/iKeZzWCjT7b6g.png&lt;/a&gt; &lt;a href=&quot;\nhttp://i.minus.com/i7BTdumrU3dS2.png&quot; rel=&quot;nofollow&quot; target=&quot;_NEW&quot;&gt;\nhttp://i.minus.com/i7BTdumrU3dS2.png&lt;/a&gt;\n\nRegards::Abhinav4\n\n","torrent":{"xt":"urn:btih:29afc461afb78eef1814b87f95f5368596606fc6","amp;dn":"Taylor+Swift-+Love+Story+HD+720p+%7EAbhinav4u%7E","amp;tr":["udp%3A%2F%2Ftracker.openbittorrent.com%3A80","udp%3A%2F%2Fopen.demonii.com%3A1337","udp%3A%2F%2Ftracker.coppersurfer.tk%3A6969","udp%3A%2F%2Fexodus.desync.com%3A6969"],"infoHash":"29afc461afb78eef1814b87f95f5368596606fc6","infoHashBuffer":{"type":"Buffer","data":[41,175,196,97,175,183,142,239,24,20,184,127,149,245,54,133,150,96,111,198]},"announce":[],"urlList":[]}}